/* XPM */
static char *bitcoin64[] = {
/* columns rows colors chars-per-pixel */
"64 63 183 2 ",
"   c #625E54",
".  c #676359",
"X  c #756C54",
"o  c #756E5C",
"O  c #7D7357",
"+  c #666666",
"@  c #6C6962",
"#  c #676868",
"$  c #6D6D6D",
"%  c #74726B",
"&  c #767060",
"*  c #747474",
"=  c #797770",
"-  c #777877",
";  c #797874",
":  c #777878",
">  c #7B7C7B",
",  c #897E60",
"<  c #817E75",
"1  c #807F7C",
"2  c #7F807F",
"3  c #AC8D49",
"4  c #AE8D46",
"5  c #AF914B",
"6  c #B3934D",
"7  c #BD9A4E",
"8  c #AD9258",
"9  c #B59750",
"0  c #B59951",
"q  c #BB9C53",
"w  c #BB9E59",
"e  c #BCA45C",
"r  c #8A8168",
"t  c #84827B",
"y  c #8E8A7F",
"u  c #918A75",
"i  c #9E957A",
"p  c #AA9669",
"a  c #B39F6B",
"s  c #A49572",
"d  c #AA9D7C",
"f  c #A69978",
"g  c #B8A167",
"h  c #BFA860",
"j  c #BDA66D",
"k  c #AEA079",
"l  c #B4A57E",
"z  c #B8A77B",
"x  c #BCA97D",
"c  c #B8A674",
"v  c #C49E4F",
"b  c #C39F51",
"n  c #C7A14D",
"m  c #C8A34F",
"M  c #C6A252",
"N  c #C9A554",
"B  c #CCA956",
"V  c #C3A45B",
"C  c #CAA758",
"Z  c #C3A95E",
"A  c #CDAC5C",
"S  c #D0AF5C",
"D  c #CFB05E",
"F  c #D2B25E",
"G  c #C4AA62",
"H  c #CCAC62",
"J  c #C2A966",
"K  c #D0AF60",
"L  c #CEB063",
"P  c #CEB16A",
"I  c #D2B463",
"U  c #D6B966",
"Y  c #D8BB66",
"T  c #D0B46B",
"R  c #D6BA69",
"E  c #D9BE6C",
"W  c #C2AF79",
"Q  c #C1B17C",
"!  c #CCBB7C",
"~  c #CBB674",
"^  c #D8BF71",
"/  c #D0BF7D",
"(  c #D4BE75",
")  c #DBC16E",
"_  c #DCC473",
"`  c #DEC877",
"'  c #D5C27B",
"]  c #DDC67C",
"[  c #DFC97B",
"{  c #E0CA7A",
"}  c #838483",
"|  c #878887",
" . c #8D8B85",
".. c #878888",
"X. c #8B8B8B",
"o. c #898783",
"O. c #918E85",
"+. c #918F89",
"@. c #8F908F",
"#. c #959186",
"$. c #999385",
"%. c #95938B",
"&. c #9A968B",
"*. c #9D998D",
"=. c #8F8F90",
"-. c #8F9090",
";. c #939493",
":. c #999792",
">. c #979897",
",. c #9C9A94",
"<. c #979798",
"1. c #979898",
"2. c #9C9C9C",
"3. c #A49D83",
"4. c #A29C8D",
"5. c #A89F88",
"6. c #A89E85",
"7. c #A19E93",
"8. c #A09F9B",
"9. c #A6A08F",
"0. c #AFA489",
"q. c #BBAB84",
"w. c #B3A98B",
"e. c #B9AC8B",
"r. c #BDB18B",
"t. c #BEB283",
"y. c #A5A195",
"u. c #AAA495",
"i. c #A4A29B",
"p. c #AAA69A",
"a. c #ADA99E",
"s. c #B2AB91",
"d. c #B2AC9D",
"f. c #BAB094",
"g. c #BCB39F",
"h. c #9FA0A0",
"j. c #A4A4A4",
"k. c #A8A7A5",
"l. c #A7A8A7",
"z. c #ACAAA3",
"x. c #A7A7A8",
"c. c #A7A8A8",
"v. c #ABACAB",
"b. c #B2AEA3",
"n. c #B1AFA8",
"m. c #AFB0AF",
"M. c #B5B1A5",
"N. c #BAB5A6",
"B. c #B4B2AB",
"V. c #BAB6AA",
"C. c #BDB9AC",
"Z. c #AFAFB0",
"A. c #B3B3B3",
"S. c #B9B7B3",
"D. c #BDBAB3",
"F. c #B7B8B8",
"G. c #BCBCBC",
"H. c #C6B983",
"J. c #C1BCAE",
"K. c #C5BCA6",
"L. c #C2BEB2",
"P. c #C1BFBA",
"I. c #BFC0BF",
"U. c #C5C1B6",
"Y. c #C4C1BA",
"T. c #CCC4B1",
"R. c #BFC0C0",
"E. c #C4C4C4",
"W. c #C7C8C7",
"Q. c #C7C7C8",
"!. c #C7C8C8",
"~. c #CCCCCC",
"^. c #C9C8C4",
"/. c #CFD0CF",
"(. c #D0D0CF",
"). c #D4D4D4",
"_. c #D8D7D7",
"`. c #DBDBDB",
"'. c #DFDFE0",
"]. c #E2E2E2",
"[. c #E7E7E8",
"{. c #E8E8E8",
"}. c None",
/* pixels */
"}.}.}.}.}.}.}.}.}.}.}.}.}.}.}.}.}.}.}.}.}.}.}.}.}.}.}.C.C.P.C.V.V.L.N.N.V.}.}.}.}.}.}.}.}.}.}.}.}.}.}.}.}.}.}.}.}.}.}.}.}.}.}.}.",
"}.}.}.}.}.}.}.}.}.}.}.}.}.}.}.}.}.}.}.}.}.}.L.C.C.D.M.M.b.B.p.p.p.z.a.d.d.n.d.d.b.S.}.}.}.}.}.}.}.}.}.}.}.}.}.}.}.}.}.}.}.}.}.}.",
"}.}.}.}.}.}.}.}.}.}.}.}.}.}.}.}.}.}.}.}.L.C.M.M.a.7.:.+.+.:.1.2.:.<.;.%.X.%.&.4.p.a.p.b.}.}.}.}.}.}.}.}.}.}.}.}.}.}.}.}.}.}.}.}.",
"}.}.}.}.}.}.}.}.}.}.}.}.}.}.}.}.}.}.D.M.N.p.,.+.:.j.v.j.;.} } } ..X.X.;.j.v.h.1.:.+.&.y.p.b.N.}.}.}.}.}.}.}.}.}.}.}.}.}.}.}.}.}.",
"}.}.}.}.}.}.}.}.}.}.}.}.}.}.}.}.C.M.V.y.%.2.c.1.2 * $ $ * : > - * > > * % $ > ..1.v.2. .,.y.u.b.}.}.}.}.}.}.}.}.}.}.}.}.}.}.}.}.",
"}.}.}.}.}.}.}.}.}.}.}.}.}.}.U.M.M.y.%.h.j.} $ + $ $ $ 2.h.> ;.c.> * c.2.=.<...2 : : } k.j.%.&.p.b.V.}.}.}.}.}.}.}.}.}.}.}.}.}.}.",
"}.}.}.}.}.}.}.}.}.}.}.}.}.C.b.z.#.,.2.> # $ $ * * $ * 2 j.> } 2.- - j...> ;.X.} ..=.| > } 2.2.1.y.d.V.}.}.}.}.}.}.}.}.}.}.}.}.}.",
"}.}.}.}.}.}.}.}.}.}.}.S.N.M.7.:.c.| $ 2 } $ $ $ $ * * > Z.> =.j.2 * A.-.2.> > ..v...<.=.X.> X.c.2.,.N.Y.U.}.}.}.}.}.}.}.}.}.}.}.",
"}.}.}.}.}.}.}.}.}.}.V.N.z.&.7.1.* + - I.2 $ $ > * * * - m.- % S.| - F.$ X.X...| R.2.} c.X.;.=.> <.h.1.C.J.L.}.}.}.}.}.}.}.}.}.}.",
"}.}.}.}.}.}.}.}.}.N.M.b.,.2.| $ $ # # @.c.* * ..2 - * | h.} } 2 * X.j.X.=.c.2 ;.X.E.j.} =.c.c.<...X.c.,.M.L.U.}.}.}.}.}.}.}.}.}.",
"}.}.}.}.}.}.}.}.C.b.p.&.2.1 $ $ $ $ $ $ G.2 * -.| - * $ - 2 2 2 2 > > > ..} ..2.=...R.=...;.=.v.2.;...c.,.b.U.C.}.}.}.}.}.}.}.}.",
"}.}.}.}.}.}.}.V.z.b.+.2.: # } v.2 * * $ -.c.2 * * - * 2 - 2 2 2 } } } ........} <.<.h...X.<.2.F.j.k.2.2 k.i.M.N.V.}.}.}.}.}.}.}.",
"}.}.}.}.}.}.}.b.b.+.v.2 $ $ $ =.I.m.} > 2 $ * - - - 2 - 2 2 2 2 i.| ......X.X.=.......1.1.1.F.;.;.A.h.h.} Z.;.d.M.B.}.}.}.}.}.}.",
"}.}.}.}.}.}.n.a.$.k.2 $ $ $ # > - o.m.* * * - - - 2 2 2 2 2 #.0.K.7.+.X.X.X.=.-.;.;.<.=.j.G.;.2.;.;.j.c.j...k.;.n.M.}.}.}.}.}.}.",
"}.}.}.}.}.b.z.7.i.=.$ } > $ $ > * # $ * * - - - - 2 2 2 2 } * O f < ..X.=.=.-.;.;.<.<.1.=.h.2.h.;.h.c.c.v.j.=.v.,.u.a.}.}.}.}.}.",
"}.}.}.}.}.b.p.%.h.* : v.h.2 > } @.* * * 2 2 2 o.2 2 2 2 } } = . @ y X.X.-.;.;.;.<.8.1.2.2.<.<.j.j.c.c.v.v.v.2.i.2.7.p.p.}.}.}.}.",
"}.}.}.}.b.y.O.v.> * $ + j.F.h.$ $ - - - * $.u.4.2 2 } } } | } ..X...=.=.;.;.;.<.;.4.n.p.h.j.j.j.c.v.v.A.F.A.Z.;.c.;.,.z.}.}.}.}.",
"}.}.}.z.z.,.i.+.$ A.h.> $ $ X.* - - - > > r z d.%.} } } | ..X.X.=.=.=.;.;.;.<.%.4.3.H.:.h.j.j.k.c.c.A.R.Z.v.A.A.;.v.*.7.a.}.}.}.",
"}.}.}.b.7.%.v.: $ * v.F.} * $ - - - > > % . O @ = } } ....X.%.*.4.,.:.;.;.1.2.;.o.X & &.j.k.c.v.v.2.v.h.Z.v.v.F.j.j.,.&.y.}.}.}.",
"}.}.}.p.7.8.;.$ $ $ $ =.G.> - - : > > > > 2 @ t } | X.3.t.' ' ' ' ' / H.w.7.2.h.1.% h.h.k.c.v.v.Z.2.j.A.A.v.F.G.F.;.v.%.%.z.}.}.",
"}.}.n.7.%.k.> * 2 | - $ > * : : > > > > } 2 } }  .k H.[ { { ` ` { { { _ { ] H.8.h.h.j.x.v.v.v.v.Z.c.v.A.A.k.k.A.R.j.k.2.,.u.}.}.",
"}.}.p.7.:.2.$ ;.F.E.v.* * * > > > 2 2 2 } } }  .x ' ` ` ` ` ` ` { _ { _ _ { ^ / s.j.x.v.v.v.v.A.Z.A.v.v.v.v.G.R.R.G.;.j.&.7.}.}.",
"}.b.p.&.j.X.* $ $ * j.t > > > > *.} t } } } #.~ _ ) _ _ _ _ _ _ _ _ ) _ { { { ^ / e.x.v.v.Z.n.b.A.A.F.F.F.G.!.E.E.E.h.c.&.&.p.}.",
"}.z.7.O.Z.: 2 : * * * 2 : > t u.f.:.| } |  .~ _ ) ) ) ) ] ` ] [ { { ] ] H.{ _ E { ( s.v.v.A.F.6.T.y.S.G.v.R.Z.A.R.Q.A.k.,.X.y.}.",
"}.z.2.%.j.* X.v.} 2 } - > 2 > X k u t y  .c ) ) ) R ) _ ) ) Z e J h h h Z Y ) _ E E ~ b.Z.k.y , f D.G.G.k.v.G.E.Z.E.Q.2.k.%.7.}.",
"}.p.,.i.;.* $ v.Q.A.} > > 2 * . . #.} | i R U R R ) U U Y e U R R R R R T e Y R R R R Q B.A.A.o %.&.G.G.c.E.E.!.G.R.~.j.v.O.&.}.",
"b.z.4.z.X.- * * > * > > 2 2 2 } } ; | | J U U U F ) Y U Z U U U R R R R U e U R R R R T f.F.A.j.G.R.R.E.v.Q.!.!.R.R./.v.v.%.%.p.",
"B.i.%.c.X.* > * ;.v.} 2 2 } } } | | X.i L I I L F Y F I G U L U I U I I I H e Z U I U U W F.G.G.G.E.E.E.R.v.F.A.Z.~./.G.j.;.%.z.",
"S.b.,.v.1 > > > - ;.> 2 } } ....| X...g L I D Z F F F D D F L I I I I I I I I I I I I I P V.G.G.E.E.E.E.!.!.R.E.~.~.).Q.2.:.#.a.",
"S.z.%.v.> | 2 2 2 > 2 } } ......X.X.X.Z A A A V F F D D L T P P P T P T T I K K I I I K H f.E.E.E.E.Q.Q.E.E.~.~./.E./.).i.2.+.i.",
"B.M.:.v.> k.A.A.Z.j.2 } } ......X.X.#.V A A V C S S S B 5 5 5 5 6 6 6 6 0 H A A A K S H L e.E.E.E.!.!.!.E.A.Q.Q.E.E./.).j.i.#.y.",
"S.C.2.k.> ....X.;.2.} } ..X.X.=.@.;.#.V C C q B B B B B A A D P P H P P T T H A A A A A A x E.Q.!.!.~.~.~.c.F.G.G.A.~._.j.j.:.z.",
"J.S.7.x.2 : 2 } } : } ......=.-.=.;.#.b N B 9 N B N B N C C 6 M M M M M M M w C C A C A C W Q.Q.Q.~.~.(.~.G.).).).)._._.x.8.&.z.",
"S.J.8.v...2 } ..-.<.X.X.=.=.=.-.;.;.%.b b M 9 m m N N B N N q 6 6 6 6 6 6 6 b C B C N N b q.Q.Q.~.~.(.(.~.G.~.).).(.)._.j.8.7.z.",
"B.V.7.Z.X...c.} R.Z.=...=.=.-.;.;.<.%.q b b 7 6 v m v N b b b b M M M 9 H H H H N M b N b e.Q.~.~.(.(.).Q.Z.E.R.R.Q.).).j.7.%.z.",
"Z.J.h.v.;.> ..> ..2 -.=.=.=.-.<.<.1.,.8 v M v 4 v m v B M b v b b N b 6 v m M M M M M b b K.~.~.(.~.).).).~.).~.R.F.`.~.l.8.8.b.",
"S.J.p.j.2.} } ..} ..=.-.-.;.<.<.1.2.2.s b M M 3 m m m B N b M M M N N 6 N m N m N M N M e Y.~./.).).)._._.(.Q.F.E.`.`.E.n.4.7.n.",
"}.M.b.:.h.} 2.-.;.j.h.;.;.;.<.1.2.2.h.$.q M M M 4 m m B H N N M B N B 9 N m N B C N N M x /././.).).).).G.G.F.~.).).'.F.v.4.p.}.",
"}.b.a.%.c.=.-.G.Q.Z...;.<.<.<.2.2.h.h.h.p M C M 7 4 B m A H C C C B B 9 B m B B C B C V L./.).).).)._._.).~.Q.E.G./.].Z.2.:.,.}.",
"}.n.z.%.v.<.X.......;.<.<.2.2.h.h.h.j.x.7.w C C B v 6 N B A P C C C B 7 B B B B C C C q./.).).).)._._.'.'.'.`.'.E._._.v.7.7.b.}.",
"}.n.p.*.8.c.=.;.;.<.<.<.2.2.2.h.j.j.x.v.x.3.b A C C C 6 6 V B I T T K K B B q 0 A C j ^.).).)._._._.`.`.`.).`.`.'.].E.v.%.7.b.}.",
"}.}.p.7.;.n.<.=.j.x.2.2.2.h.h.j.j.j.x.x.x.v.f G A C C A B e 0 0 0 9 q 0 0 q C A A J Y.).).)._._.`.`.`.'.`.G.Q./.].].Z.v.&.7.}.}.",
"}.}.b.7.X.c.j.=.h.c.v.2.h.h.j.j.j.v.x.x.Z.Z.v.6.Z A A A A A S A K A A S D A D A J Y.).)._._._.`.`.`.`.'.~.F.Y.Q.[._.Z.,.&.8.}.}.",
"}.}.}.z.7.%.v.<.X.h.X.h.h.h.j.c.x.v.v.Z.Z.Z.A.B.u.g A S S A D D S A S K D D J q.!.).).)._._.`.`.`.'.'.'.]./.E.`.[.F.v.$.7.z.}.}.",
"}.}.}.p.*.O.v.k.2.;.2.h.j.x.c.c.v.v.v.v.Z.A.A.F.F.A.0.j G A I F I I A H J x C.).).)._._._.`.`.`.'.'.'.].].].[.].`.A.%.&.7.}.}.}.",
"}.}.}.a.7.&.X.v.j.h.j.j.j.c.v.v.v.v.A.A.A.A.F.G.G.G.G.F.M.0.l z c z q.N.Y./.).).)._._._.`.`.'.`.'.].].].[.].[.[.F.z. .+.z.}.}.}.",
"}.}.}.}.p.:.#.2.v.j.j.x.c.1.j.v.Z.Z.A.A.A.F.F.P.G.R.E.E.E.E.!.!.!.~.(.(./.).).)._._.`.`.`.`.'.'.].].E.!.[.[.{.~.A.%.%.i.}.}.}.}.",
"}.}.}.}.}.7.%.#.v.c.j.j.2.=.j.Z.Z.A.A.F.F.G.G.G.R.P.E.E.!.!.!.~.~.~.).(.).).)._._.`.`.`.'.'.].].].E._.].].{.].S.2.O.&.B.}.}.}.}.",
"}.}.}.}.}.a.*. .;.v.v.2.;.v.v.2.Z.F.F.F.G.G.G.R.E.E.E.Q.!.~.!.~.~./.).).)._._._.`.`.`.`.`.].].]./._.A._.'.[.F.z.| #.k.}.}.}.}.}.",
"}.}.}.}.}.}.y.%.#.2.A.v.j.j.;.2.v.h.A.G.G.R.R.E.E.E.Q.Q.~.~./././.).).)._._.`._.`.`.'.'.].].].E.G._.].Z._.R.v.%.#.i.}.}.}.}.}.}.",
"}.}.}.}.}.}.}.y.#.O.8.Z.A.v.v.A.;.c.G.R.R.E.R.E.E.Q.!.~.~.~.~./.).).)._._._.`.`.`.].'.].].).E.).`._.]._.^.v.&.#.,.}.}.}.}.}.}.}.",
"}.}.}.}.}.}.}.z.*.#. .i.F.A.v.;.h.v.<.Z.F.E.E.Q.Q.Q.~.~.~./.).).)._._._.`.`.`.'.'.'.].'.).~.E.E./.G.].~.A.%.o.*.z.}.}.}.}.}.}.}.",
"}.}.}.}.}.}.}.}.j.&.&. .j.A.F.Z.A.;.Z.R.v.A.F.!.~.~.~.~./.).).)._._._.`.`.`.'.'.].'.`.).`.~._.F.~.'.E.A.%.$.*.j.}.}.}.}.}.}.}.}.",
"}.}.}.}.}.}.}.}.}.v.*.$.y :.Z.F.R.v.G.Z.A.E.;.v.A.E./.).).)._.)._._._.`.`.'.'.`.)._.~.G.G./.E.).`.R.z. .#.*.i.}.}.}.}.}.}.}.}.}.",
"}.}.}.}.}.}.}.}.}.}.k.:.&.%.;.c.G.R.F.j.A.A.2.A.E.2.F.F.~.).).~.).`.`.'.'.R._._.A.F.A.E.Q._.`.).A.i.#.%.&.i.}.}.}.}.}.}.}.}.}.}.",
"}.}.}.}.}.}.}.}.}.}.}.v.j.4.*.%.i.A.G.E.E.1.A.~.R.2.~.F.F.F._.Z.E.`.`.'.'.E.A.].~.`.`.~.'.`.R.z.;.#.$.y.i.}.}.}.}.}.}.}.}.}.}.}.",
"}.}.}.}.}.}.}.}.}.}.}.}.}.i.y.7.%.+.c.F.G.!.E.W.k.A._.!.E.j._.A.Q.`.`.'.`.~.R.F.~.).'.).E.A.2.O.%.*.7.}.}.}.}.}.}.}.}.}.}.}.}.}.",
"}.}.}.}.}.}.}.}.}.}.}.}.}.}.h.k.u.y.%.X.v.F.F.W.~.W.!.A./.j.~.v.R.~.G.]./.!.`.)._.!.F.A.j.%.$.*.y.,.}.}.}.}.}.}.}.}.}.}.}.}.}.}.",
"}.}.}.}.}.}.}.}.}.}.}.}.}.}.}.}.8.p.y.2.%.O.2.v.Z.G.E.!.).~.).).)._._._.).~.E.A.v.j.,.#.#.%.7.7.}.}.}.}.}.}.}.}.}.}.}.}.}.}.}.}.",
"}.}.}.}.}.}.}.}.}.}.}.}.}.}.}.}.}.}.y.a.4.7.,. .X.-.h.v.v.v.A.F.F.Z.Z.v.v.v.1.;.O.&.*.&.y.y.%.}.}.}.}.}.}.}.}.}.}.}.}.}.}.}.}.}.",
"}.}.}.}.}.}.}.}.}.}.}.}.}.}.}.}.}.}.}.}.i.y.y.*.*.&.%. . . .|  .%.O.|  .%.%.&.&.*.y.,.2.}.}.}.}.}.}.}.}.}.}.}.}.}.}.}.}.}.}.}.}.",
"}.}.}.}.}.}.}.}.}.}.}.}.}.}.}.}.}.}.}.}.}.}.2.7.*.y.7.&.$.$.%.&.&.*.%.*.&.7.7.7.*.<.}.}.}.}.}.}.}.}.}.}.}.}.}.}.}.}.}.}.}.}.}.}.",
"}.}.}.}.}.}.}.}.}.}.}.}.}.}.}.}.}.}.}.}.}.}.}.}.}.}.}.:.*.,.<.*.&.&.2.,.*.}.}.}.}.}.}.}.}.}.}.}.}.}.}.}.}.}.}.}.}.}.}.}.}.}.}.}."
};
