/* XPM */
static char *bitcoin16[] = {
/* columns rows colors chars-per-pixel */
"16 16 187 2 ",
"   c #767676",
".  c #777777",
"X  c #777877",
"o  c #787878",
"O  c #7D7C78",
"+  c #7C7C7B",
"@  c #7C7D7C",
"#  c #898477",
"$  c #82807A",
"%  c #80807F",
"&  c #C29F51",
"*  c #C09F54",
"=  c #C19F55",
"-  c #C4A050",
";  c #C4A253",
":  c #C4A154",
">  c #C9A552",
",  c #CAA552",
"<  c #C8A556",
"1  c #C9A656",
"2  c #C7A758",
"3  c #C7A659",
"4  c #C7A759",
"5  c #C6A55A",
"6  c #C7A85B",
"7  c #C7A95D",
"8  c #C9AA5E",
"9  c #CBAC5C",
"0  c #D0AF5C",
"q  c #CFAF60",
"w  c #C6B06D",
"e  c #CFB568",
"r  c #D1B161",
"t  c #D0B567",
"y  c #D0B667",
"u  c #D8BC69",
"i  c #CBB978",
"p  c #D0B871",
"a  c #D2BF7C",
"s  c #DEC777",
"d  c #DEC879",
"f  c #838380",
"g  c #828382",
"h  c #838483",
"j  c #848583",
"k  c #848484",
"l  c #848584",
"z  c #858585",
"x  c #868686",
"c  c #868787",
"v  c #878787",
"b  c #8C8981",
"n  c #8F8C80",
"m  c #898887",
"M  c #8A8A8A",
"N  c #8B8B8B",
"B  c #8C8B89",
"V  c #8B8C8B",
"C  c #8C8C8C",
"Z  c #8E8E8E",
"A  c #8F8F8F",
"S  c #918E88",
"D  c #949286",
"F  c #989181",
"G  c #9F9581",
"H  c #92908D",
"J  c #9A9588",
"K  c #9B988B",
"L  c #9B988F",
"P  c #939393",
"I  c #939493",
"U  c #959595",
"Y  c #979795",
"T  c #969696",
"R  c #999790",
"E  c #9B9891",
"W  c #9C9991",
"Q  c #9D9A90",
"!  c #9D9A91",
"~  c #9E9B91",
"^  c #9C9A93",
"/  c #9F9B92",
"(  c #9B9994",
")  c #9B9A94",
"_  c #9D9B94",
"`  c #9D9A95",
"'  c #9D9B95",
"]  c #9E9C95",
"[  c #9E9C97",
"{  c #9E9D97",
"}  c #999998",
"|  c #9B9B99",
" . c #9B9C9C",
".. c #9C9C9C",
"X. c #9E9E9E",
"o. c #9F9F9F",
"O. c #A19D94",
"+. c #A09E98",
"@. c #A19F9B",
"#. c #A09F9E",
"$. c #B3A689",
"%. c #A2A099",
"&. c #A3A19A",
"*. c #A3A19B",
"=. c #A4A198",
"-. c #A7A399",
";. c #A5A29B",
":. c #A3A29C",
">. c #A2A19E",
",. c #A5A39E",
"<. c #A7A49C",
"1. c #A8A49B",
"2. c #ABA79F",
"3. c #AEAA9B",
"4. c #ACA89E",
"5. c #ACA99F",
"6. c #A0A0A0",
"7. c #A1A1A1",
"8. c #A5A5A2",
"9. c #A4A4A4",
"0. c #A5A5A5",
"q. c #A5A6A6",
"w. c #A6A6A6",
"e. c #A8A6A1",
"r. c #A9A7A1",
"t. c #ABA9A2",
"y. c #ABA9A3",
"u. c #AEAAA0",
"i. c #ACA9A2",
"p. c #AAAAAA",
"a. c #ADACAA",
"s. c #AEAFAF",
"d. c #AFAFAF",
"f. c #B2AEA4",
"g. c #B3AFA4",
"h. c #B0ADA7",
"j. c #BCB6A7",
"k. c #B7B4A9",
"l. c #B0B0B0",
"z. c #B1B1B1",
"x. c #B3B2B0",
"c. c #B3B3B2",
"v. c #B6B5B0",
"b. c #B4B4B4",
"n. c #B6B6B6",
"m. c #B7B7B7",
"M. c #B9B8B6",
"N. c #B9B9B9",
"B. c #BABBBA",
"V. c #BDBCBA",
"C. c #BEBEBE",
"Z. c #BFBFBF",
"A. c #C5B58A",
"S. c #C9B88C",
"D. c #C9B992",
"F. c #C5B89B",
"G. c #C2B8A0",
"H. c #CCC4B1",
"J. c #CBC6BA",
"K. c #C0C0C0",
"L. c #C2C1C0",
"P. c #C2C2C2",
"I. c #C3C3C3",
"U. c #C5C5C5",
"Y. c #C6C6C6",
"T. c #C7C7C6",
"R. c #C7C7C7",
"E. c #CACACA",
"W. c #CBCBCB",
"Q. c #CCCCCC",
"!. c #CDCDCD",
"~. c #CFCFCF",
"^. c #CFD0CF",
"/. c #D0D0D0",
"(. c #D1D1D1",
"). c #D2D2D2",
"_. c #D3D3D3",
"`. c #D5D5D5",
"'. c #D6D6D6",
"]. c #D7D7D7",
"[. c #D8D8D8",
"{. c #DADADA",
"}. c #DBDBDB",
"|. c #DCDCDC",
" X c #DDDDDD",
".X c #E1E1E1",
"XX c None",
/* pixels */
"XXXXXXXXXXg.u.>.*.<.<.XXXXXXXXXX",
"XXXXXXg.` @   C c c S ) g.XXXXXX",
"XXXXu.B . h X c c B  .Y | k.XXXX",
"XX5.H . c o O $ B Z P X.7.X.u.XX",
"XX` g c . # c D L I J 0.p.s.@.XX",
"=.m c @ j # i d s s 5.a.x.m.s.! ",
"=.c c O b w u y e e p r.k.B.B.] ",
"y.N N c F 9 0 8 7 q r G.Y.Z.E.@.",
"a.h Z Z G - > : * 5 > F.!.R./.>.",
"u.I Y Y  .* - > : > < J.'.E.Q.=.",
"1.)  .X.0.$.5 6 7 5 D.'.}.^.R.O.",
"XX| 7.0.s.n.k.S.S.H.'.|.|..Xt.XX",
"XX/ >.0.z.Z.Y.Q.(.]. X}.(.V.] XX",
"XXXXE 8.z.b.I./.}.}.^.!.M.E XXXX",
"XXXXXX*.<.c.Z.L.(.E.L.r.! XXXXXX",
"XXXXXXXXXX! E ` ` ! L XXXXXXXXXX"
};
