/* XPM */
static char *bitcoin32[] = {
/* columns rows colors chars-per-pixel */
"32 32 112 2 ",
"   c #6D6D6D",
".  c #787364",
"X  c #7A776D",
"o  c #7F796B",
"O  c #757575",
"+  c #777877",
"@  c #787877",
"#  c #7B7C7B",
"$  c #7F807F",
"%  c #BA984D",
"&  c #BD9E53",
"*  c #BD9F5A",
"=  c #BFA158",
"-  c #838077",
";  c #8D8774",
":  c #80807E",
">  c #9D947B",
",  c #AD996C",
"<  c #A79671",
"1  c #AB9A71",
"2  c #A49A7B",
"3  c #BCA977",
"4  c #B4A77C",
"5  c #C19E51",
"6  c #C5A04F",
"7  c #C8A24E",
"8  c #C5A253",
"9  c #C9A554",
"0  c #CBA855",
"q  c #C6A65A",
"w  c #CAA759",
"e  c #C7A85E",
"r  c #CCAB5C",
"t  c #D0AE59",
"y  c #CFB05F",
"u  c #D2B25E",
"i  c #CBAE61",
"p  c #C0A76F",
"a  c #C5A96B",
"s  c #CCB265",
"d  c #CEB569",
"f  c #D2B363",
"g  c #D5B866",
"h  c #D2B76A",
"j  c #D6BB6B",
"k  c #D8BE6D",
"l  c #C4AD74",
"z  c #DAC06E",
"x  c #DCC373",
"c  c #DEC877",
"v  c #D5C27C",
"b  c #DDC679",
"n  c #DFC979",
"m  c #E0CA78",
"M  c #848483",
"N  c #888784",
"B  c #8C8B86",
"V  c #8C8C8C",
"C  c #918E85",
"Z  c #949187",
"A  c #989280",
"S  c #9C9887",
"D  c #93928C",
"F  c #99968D",
"G  c #9D998F",
"H  c #949493",
"J  c #9A9790",
"K  c #979897",
"L  c #9C9A93",
"P  c #979898",
"I  c #9C9C9B",
"U  c #A09784",
"Y  c #A29B84",
"T  c #A19E94",
"R  c #A19F9B",
"E  c #ABA487",
"W  c #A5A08C",
"Q  c #ADA58C",
"!  c #B8AF8C",
"~  c #A4A096",
"^  c #A9A395",
"/  c #A4A29C",
"(  c #A9A59C",
")  c #ADA99F",
"_  c #A4A4A4",
"`  c #A8A7A3",
"'  c #AEABA4",
"]  c #ABACAB",
"[  c #B3AEA2",
"{  c #B1AEA8",
"}  c #B5B1A7",
"|  c #B8B3A6",
" . c #B5B1A8",
".. c #B9B5AB",
"X. c #BDB9AE",
"o. c #B4B4B4",
"O. c #BCB9B1",
"+. c #BCBCBC",
"@. c #C4B584",
"#. c #C2B28B",
"$. c #C4B594",
"%. c #C3BCAC",
"&. c #C1BCB0",
"*. c #C6C4BF",
"=. c #C9C5BD",
"-. c #C3C3C3",
";. c #C7C8C7",
":. c #CBCBCB",
">. c #D3D3D3",
",. c #DBDBDB",
"<. c #E1E1E1",
"1. c None",
/* pixels */
"1.1.1.1.1.1.1.1.1.1.1.1.&.....{ { [ | [ 1.1.1.1.1.1.1.1.1.1.1.1.",
"1.1.1.1.1.1.1.1.1...../ / I D D D H I L T ^ [ 1.1.1.1.1.1.1.1.1.",
"1.1.1.1.1.1.1.X.| / P N O # : V + V : M V H L / ..1.1.1.1.1.1.1.",
"1.1.1.1.1.1...( P $ O     @ H H @ P V M H V V P / X.1.1.1.1.1.1.",
"1.1.1.1.1.| T V   V $ # + + P D M H H M ] H H H H ` %.1.1.1.1.1.",
"1.1.1.1.{ T M #     I $ # + + # # M V V H R V _ I H ` X.1.1.1.1.",
"1.1.1.{ T V   # I V + + + # $ B T V V V V H _ _ I _ H / | 1.1.1.",
"1.1.[ / H N # @ + O + # # $ M . ; V V H P P P I _ _ ] I T ) 1.1.",
"1.1.( T $ O H M O @ - ^ $ M N M B D H K ~ ^ _ _ _ o.o._ _ T 1.1.",
"1.) T V O _ M O @ # X o M N S E Q W K K o F _ ] _ _ ] o._ L T 1.",
"1.( I @ P # # @ # # M : 2 v n c c c v ! / _ ] ] ] ] o.o.o.I T 1.",
"1.G K + # V @ M C M M 4 x x x b n b c x @.] ] ' +.o.o.-.-._ F 1.",
"' L V H H # # X > M 2 k k k j s s s d x k #.] A S +.] +.+.o.L T ",
"' R M @ D # $ $ : B s h g g s g j g i i h h | ' +.-.+.-.+.-.I L ",
"{ / # @ V # M M V 2 i r f u u f f g f f g f $.&.-.-.-.+.:.:./ L ",
"../ V _ _ M M V V 1 r 9 t r = = = = e r t i l -.-.:.+.-.+.>./ L ",
"o._ $ # $ V V V D , 0 5 0 0 q & * * * 9 w r a -.:.:.-.>.>.>._ R ",
"O._ M V _ V V H P < 5 % 7 8 8 8 8 5 e w 9 8 p :.:.>.&.;.;.>./ / ",
".._ V V M H H P P S 5 % 6 9 9 8 0 % 7 9 9 8 #.>.>.>.>.-.;.>.R ( ",
"{ R P I ] H P I _ R * 0 % 7 r 0 0 5 0 9 0 q =.>.>.,.;.:.:.;.R ( ",
"1.^ R H H P I I _ _ T q 0 & & e i r 8 8 w $.>.>.,.,.,.,.,.+.G 1.",
"1.^ I P _ I I _ _ ] { Q e r r w 8 q t r #.>.>.,.,.<.-.;.<._ L 1.",
"1.[ F _ P I _ ] ] ] o.o.} 3 i r s i l %.>.>.,.,.,.<.<.<.;.F ( 1.",
"1.1.T K _ _ _ ] ] o.o.+.+.-.+.O.%.-.>.>.>.,.,.<.<.>.<.,.` F 1.1.",
"1.1.( Z _ ` P _ o.o.+.+.-.-.;.:.:.>.>.,.,.,.<.<.>.:.<.+.Z ` 1.1.",
"1.1.1./ Z ] ] _ _ +.+.-.-.:.:.:.>.>.,.,.,.<.,.:.>.>.+.F R 1.1.1.",
"1.1.1.1.L D ] ] _ ] o.*.:.:.>.>.>.,.,.,.<.,.:.-.>.-.G L 1.1.1.1.",
"1.1.1.1.1.L D ] +.o.o._ o.-.>.>.>.,.>.,.-.-.>.>.o.F G 1.1.1.1.1.",
"1.1.1.1.1.1./ T L o.+.-.] :.o.-.>.,.,.+.>.>.:./ F T 1.1.1.1.1.1.",
"1.1.1.1.1.1.1.` / J I o.-.-.-.:.:.>.:.:.+./ F G T 1.1.1.1.1.1.1.",
"1.1.1.1.1.1.1.1.1.( T G D K L I / L I F G L T 1.1.1.1.1.1.1.1.1.",
"1.1.1.1.1.1.1.1.1.1.1.1.G L F J F L L L 1.1.1.1.1.1.1.1.1.1.1.1."
};
